Reworked colouring hue and saturation ,deinterlaced levels and chroma smoother,then slight sharpen


Format : AVI
Format/Info : Audio Video Interleave
File size : 1.39 GiB
Duration : 1h 42mn
Overall bit rate : 1 951 Kbps
Writing application : VirtualDubMod 1.5.10.3 | www.virtualdub-fr.org || (build 2550/release)
Writing library : VirtualDubMod build 2550/release

Video
ID : 0
Format : MPEG-4 Visual
Format profile : Advanced Simple@L5
Format settings, BVOP : 2
Format settings, QPel : No
Format settings, GMC : No warppoints
Format settings, Matrix : Default (H.263)
Muxing mode : Packed bitstream
Codec ID : XVID
Codec ID/Hint : XviD
Duration : 1h 42mn
Bit rate : 1 811 Kbps
Width : 692 pixels
Height : 332 pixels
Display aspect ratio : 2.084
Frame rate : 29.970 fps
Color space : YUV
Chroma subsampling : 4:2:0
Bit depth : 8 bits
Scan type : Progressive
Compression mode : Lossy
Bits/(Pixel*Frame) : 0.263
Stream size : 1.29 GiB (93%)
Writing library : XviD 64

Audio
ID : 1
Format : MPEG Audio
Format version : Version 1
Format profile : Layer 3
Codec ID : 55
Codec ID/Hint : MP3
Duration : 1h 42mn
Bit rate mode : Constant
Bit rate : 128 Kbps
Channel(s) : 2 channels
Sampling rate : 44.1 KHz
Compression mode : Lossy
Stream size : 93.6 MiB (7%)
Alignment : Split accross interleaves
Interleave, duration : 33 ms (1.00 video frame)
Interleave, preload duration : 500 ms






Sources MATiNE/ Thx


 
http://www.shotpix.com/images/03964267939041347830.png 
http://www.shotpix.com/images/02453280464157106220.png 
http://www.shotpix.com/images/79032520032971532028.png 
http://www.shotpix.com/images/01123329535310241121.png